PathFileType	4	(X/Y/Z)	OpenSim_Sub04_CSStiffKnee_Accel.trc
DataRate	CameraRate	NumFrames	NumMarkers	Units	OrigDataRate	OrigDataStartFrame	OrigNumFrames
100	100	34	8	m	100	4634	7413
Frame#	Time	torso_imu_offset_imu	pelvis_imu_offset_imu	tibia_r_imu_offset_imu	femur_r_imu_offset_imu	tibia_l_imu_offset_imu	femur_l_imu_offset_imu	toes_r_imu_offset_imu	toes_l_imu_offset_imu
				X1	Y1	Z1	X2	Y2	Z2	X3	Y3	Z3	X4	Y4	Z4	X5	Y5	Z5	X6	Y6	Z6	X7	Y7	Z7	X8		Y8	Z8	

4634	46.33000000	-7.62696166	0.41331992	7.85350540	7.94071534	2.15065923	3.54341050	10.00786428	1.27095246	2.13737888	8.79059814	-3.29493843	0.12605882	9.56031364	-1.09445748	2.26321868	8.77137798	-1.20865450	-0.62017421	6.29363941	0.47104179	8.38957588	15.27916087	3.97421774	-0.71494147
4635	46.34000000	-7.61129002	0.38031628	7.90187926	7.97282869	2.09353437	3.43667541	10.33498243	0.79241177	2.77050374	9.41058812	-2.97145813	0.37138844	9.19096973	-1.27140947	2.28164641	8.85358163	-0.34391810	-0.29256241	6.41964006	0.11650178	8.32485661	15.88512421	2.89059601	-2.74221377
4636	46.35000000	-7.57384403	0.34954107	7.91149046	8.07632293	2.05623819	3.36066572	10.38011967	0.14296981	2.54341226	9.45287584	-3.50774752	0.65345340	8.65304412	-3.23803946	1.47171462	8.65950463	0.58604709	-0.08786366	6.15830874	0.20688201	8.68644425	18.93963305	6.27567485	-2.75190897
4637	46.36000000	-7.65614790	0.37514561	7.95241767	8.22835037	1.98911488	3.37620288	10.63306880	-0.70777207	2.58959870	9.28917949	-4.09766165	0.91199672	8.37423214	-5.09464266	1.58151333	8.26640685	1.37707719	0.15368985	6.12862487	-0.16503979	8.96725798	23.62264119	7.93409482	-2.09533208
4638	46.37000000	-7.67086525	0.43370728	8.14839151	8.41691516	1.90818679	3.55648668	11.19272418	-1.58236885	2.98756554	9.59805374	-4.18396892	1.09727524	8.41811567	-6.18114087	1.00814519	8.02901617	1.79243449	0.11478039	6.27347015	-0.57478625	9.33601591	42.76582037	-9.16878004	-6.16365583
4639	46.38000000	-7.77749893	0.42985829	8.59567784	8.67907394	1.75806720	3.78143294	11.92551874	-2.52640378	2.76768661	9.95228373	-4.26721201	1.15290189	9.37605595	-9.61287335	-0.35054777	7.85867885	1.93424614	-0.03845322	6.34159475	-0.84870576	9.64656747	34.53139822	-12.08928722	0.66668479
4640	46.39000000	-8.18156149	0.25184463	9.09097172	9.03791524	1.44846480	3.74800281	12.97019689	-3.15513260	3.20945441	10.28232867	-4.42091833	1.16532144	10.29807656	-18.69958551	-4.28248700	8.61306529	1.47850706	-0.34840148	6.17783136	-1.34313544	10.25717592	4.35917729	3.61127037	11.62862154
4641	46.40000000	-8.40014685	-0.14334391	9.50538072	9.48149849	1.25869012	3.98501967	14.06748113	-3.17292111	4.07077475	10.46023143	-4.70908679	0.97566996	10.88088919	-23.53841457	-3.10708984	9.33850097	0.12385798	-0.95104524	5.78433972	-2.27547250	10.44881106	5.02950174	2.43420995	13.71436631
4642	46.41000000	-8.01580735	-0.50308113	9.58255723	9.85801319	1.40903613	4.65640559	14.72466010	-2.94606875	3.62556343	10.41540669	-5.23477667	0.71736665	9.81356974	-15.70563061	1.82879586	10.13750501	-2.32375888	-1.65987293	6.01118090	-2.05263723	10.88190376	6.52661812	0.36910206	12.65020004
4643	46.42000000	-7.93787621	-0.69577024	9.69739299	10.21233157	1.39030910	5.10053960	15.36749147	-3.41846931	3.09164114	9.76025780	-5.62796059	0.71602513	7.95810620	-3.74779601	1.30992928	11.30156086	-5.27514027	-2.90960369	6.25340007	-2.00438367	11.14390327	3.11658451	4.62479450	12.47328297
4644	46.43000000	-8.24633038	-0.78043108	9.85350070	10.59909502	1.13575496	5.37760829	16.52492592	-3.90660784	3.61109260	10.10138931	-6.12836533	0.72492066	7.50217491	-1.12080976	-1.05201096	13.14752809	-6.88651200	-5.17127412	6.15004697	-2.64843131	11.63368081	4.16971145	4.52820407	12.09700854
4645	46.44000000	-8.05351377	-0.86045741	9.73168673	10.95252605	0.79282684	5.60590545	17.29591383	-3.23890586	3.48646089	9.97150154	-6.17039319	1.51273085	8.34497003	-4.98533947	0.48259333	13.60822237	-6.33119365	-6.24646537	7.50488872	-3.10610978	12.96486776	6.08595196	1.19443022	11.01561114
4646	46.45000000	-7.56321899	-0.79879424	9.51048957	10.97413550	0.27501925	5.75981014	17.25532669	-2.31577433	2.41319064	9.87160803	-6.13309824	2.59975931	10.04521037	-7.61113724	0.55083247	11.81889954	-4.95577306	-4.74106273	8.56420292	-3.58862848	13.52995415	6.15607522	0.57787018	11.04174366
4647	46.46000000	-7.19070153	-0.76883262	9.17547348	10.59001439	-0.41530926	5.76078569	16.80142331	-1.57740646	0.92659272	10.24757579	-5.85180068	3.30372482	11.03797381	-6.64533150	0.19041056	9.54261931	-2.76045325	-1.95249031	10.06128642	-5.01436256	13.92489935	5.16102561	1.49167819	11.31835802
4648	46.47000000	-7.05939552	-0.85598366	8.83188085	9.91760443	-1.15012148	5.54575794	15.95518297	-0.15482859	-0.38822871	10.58813801	-4.85068369	3.56168973	10.68069831	-3.13568730	1.30289691	8.68421925	-1.38305481	-1.93607219	11.52364659	-4.47574530	14.37832830	5.79635779	1.71040805	10.93269997
4649	46.48000000	-6.99142174	-0.95664598	8.59192278	9.13085116	-1.66295959	5.21349117	14.57743032	2.14561383	-1.09342214	11.09814583	-3.49731154	3.39842162	9.95305538	-0.41680353	0.47996504	9.12082198	-1.62851535	-2.33218741	9.93157848	-5.19903217	13.42139208	5.33213774	2.62582890	10.95558288
4650	46.49000000	-7.07223040	-1.12081505	8.50926627	8.36559817	-1.89622688	4.70110534	12.67377796	5.04651320	-1.22715003	11.46390976	-1.78106544	3.11082358	9.37538616	-0.14846523	0.17862030	9.65525637	-2.33181849	-2.09014701	11.42200698	-6.69219095	11.99914584	5.28961893	2.81801261	10.83167027
4651	46.50000000	-7.26538810	-1.32823807	8.57586731	7.93899784	-2.00911278	4.18006777	10.39620901	8.15798491	-1.08457103	12.03804940	-0.08935141	2.69633891	9.03110010	-1.76202349	-0.38242503	9.89362919	-2.45417754	-2.69593799	12.77805614	-8.35253487	7.87790553	4.94760900	2.86603898	11.02536452
4652	46.51000000	-7.54114189	-1.49077620	8.68564712	7.97167436	-2.02807631	3.84455087	7.61860507	11.16296104	-0.89589737	12.29646185	1.48418034	2.37042836	9.38232466	-3.01639157	-1.01322296	9.77053848	-1.28815171	-2.76680105	3.62964051	-1.43729842	10.53228174	5.03124475	2.90149651	10.93442955
4653	46.52000000	-7.75946623	-1.58219573	8.87083909	8.38286573	-1.86564369	3.85247166	4.43888493	13.63603721	-1.77008307	11.86752856	2.44294707	1.94808255	10.17443026	-3.09057050	-1.45969943	9.64930365	0.17761007	-2.67972759	11.63325379	-3.36429871	20.33694819	5.64478933	3.02590698	10.53580855
4654	46.53000000	-8.00854799	-1.58020518	9.32210917	9.05062088	-1.60141450	4.31834024	1.97897279	12.39486956	-0.27545301	11.51862683	2.11261117	0.86010838	10.54711079	-2.82068685	-1.86174472	9.55924103	1.21284397	-2.82578743	-3.14059015	-12.15725904	17.10922411	5.90086838	3.17400125	10.41579824
4655	46.54000000	-8.69844077	-1.54558444	9.67573626	9.91023211	-1.31292557	4.41884184	2.91567185	6.76756410	2.78267978	11.30409463	0.46905870	-0.31256636	10.60871628	-2.55441901	-1.82600680	9.22883504	2.02703974	-2.87526763	-6.89963445	-9.88545861	14.53361777	5.57591499	3.28743226	10.56947104
4656	46.55000000	-8.80592529	-1.33475636	9.64969731	10.71774259	-0.79082045	4.20117548	4.71266000	1.97174893	1.55801713	11.23854568	-1.73301416	-0.35250452	10.44239155	-2.58756230	-1.43031366	8.86800598	2.66728010	-2.57070276	0.49317827	-7.11280707	16.70112829	5.11922613	3.31667686	10.74707723
4657	46.56000000	-7.89512935	-0.85961502	9.57665976	11.40235850	-0.25903740	4.06283906	3.81371293	0.94306653	-1.16021924	11.18429109	-3.71024023	0.70584925	10.02386299	-2.84676573	-1.07234042	8.77026265	2.99883533	-2.47676389	-4.87488549	-6.49580466	15.43374854	5.44523982	2.84585024	10.68234657
4658	46.57000000	-7.18948970	-0.50959590	9.46726595	11.69974758	0.33244954	4.01421587	2.79442445	1.46124214	0.18185544	9.82850379	-5.09673271	1.89750467	9.58855931	-2.95306348	-0.61995863	9.05963630	3.06221150	-2.47850304	-3.68144495	-4.51912723	14.72214075	5.61596252	2.61693252	10.56111359
4659	46.58000000	-6.96387029	-0.43286837	9.27766911	11.67230402	0.79780144	3.95830974	3.37672019	1.89587869	1.48133769	9.02910334	-5.64959668	2.75199268	9.50000258	-3.07161643	-0.21738662	9.47424037	2.66402234	-2.39146650	-2.22260016	-3.64145515	13.93243025	5.62577947	2.51529101	10.57626048
4660	46.59000000	-6.85953738	-0.36172354	9.01474146	11.10654424	0.97682782	3.99977932	4.42047823	2.78364978	0.53081425	8.98453967	-5.72661875	3.35539416	9.60799560	-3.09449278	-0.15090136	9.71976696	1.58669868	-2.40905540	-1.54657412	-3.36019498	12.49445452	5.34485768	2.31764748	10.81109721
4661	46.60000000	-6.86118782	-0.37974445	8.83838564	10.21040625	0.90458263	4.03394071	5.07725184	4.01636971	0.20528389	8.20629666	-5.43167309	3.54719904	9.65752303	-2.98644534	-0.03765704	9.65283641	0.22605109	-2.47287754	0.06045670	-2.42508067	11.63621827	5.45823002	2.30758713	10.69128740
4662	46.61000000	-6.94858971	-0.53139913	8.74503417	9.28306339	0.71134198	3.98055014	5.69981151	5.20215338	0.77632802	8.29321844	-5.06472188	3.39902519	9.43706012	-3.00198671	-0.10782934	9.41303040	-0.97080523	-2.59180770	2.23737537	-1.62952935	11.43702294	5.60736228	2.27601901	10.60256301
4663	46.62000000	-6.87204944	-0.66623260	8.72077883	8.44548579	0.49073963	3.83860456	6.40562630	6.39419290	0.97250991	7.88683601	-4.46376130	3.54816167	9.26037861	-3.45037236	-0.29597172	9.21280980	-1.80354149	-2.63446471	4.41095002	-0.90777259	11.41618622	5.76874538	2.30079164	10.38477243
4664	46.63000000	-6.73064589	-0.76073179	8.63399340	7.82545350	0.19551179	3.64610937	6.85462245	7.24938468	0.61598130	6.98227774	-4.10914192	3.23943062	9.23128820	-3.93276757	-0.52639647	9.11644473	-2.22002739	-2.60607946	6.11508750	-0.12387129	11.13115151	5.52675044	2.52273339	10.45365468
4665	46.64000000	-6.62084132	-0.83739129	8.55711260	7.48559377	-0.16180870	3.48240346	6.95186145	7.37312198	0.53893428	6.61491543	-4.05874908	2.87117084	9.25689842	-4.22793051	-0.74224003	9.04443989	-2.26002514	-2.62849964	7.31433014	0.25827261	10.47465755	5.15702135	2.74419865	10.72687920
4666	46.65000000	-6.48635818	-0.86704790	8.51156752	7.43016763	-0.55482907	3.32941841	7.13078190	6.89211302	0.62420395	6.17759088	-3.82677600	3.05894804	9.21343015	-4.28738743	-0.88082501	9.05185558	-1.98423251	-2.81489867	8.56594825	0.09737584	9.77968056	5.53162248	2.42695381	10.37955333
4667	46.66000000	-6.43834548	-0.88510180	8.37349267	7.49037063	-0.95393730	3.28542258	7.76764116	6.21869790	0.65066529	5.82153762	-3.56134796	3.19770230	9.12877384	-4.10854479	-0.93269665	9.11120724	-1.55761722	-3.03051650	9.84688783	-0.35496705	9.06975168	5.91173925	2.69000035	10.18556355
